<svg height="32" viewBox="0 0 32 32" width="32" xmlns="http://www.w3.org/2000/svg"><path d="m16 5.308c-6.081 0-11.011 4.915-11.011 10.977s4.93 10.977 11.011 10.977 11.011-4.915 11.011-10.977c0-6.063-4.93-10.977-11.011-10.977zm10.105 10.978c0 5.564-4.524 10.074-10.105 10.074s-10.105-4.51-10.105-10.074 4.524-10.074 10.105-10.074 10.105 4.51 10.105 10.074zm-17.643 4.378v-8.607h2.064l1.239 5.871 1.225-5.871h2.069v8.607h-1.281v-6.775l-1.356 6.775h-1.328l-1.351-6.775v6.775zm7.925 0v-8.607h1.379v8.607zm4.23 0v-7.151h-2.027v-1.456h5.428v1.456h-2.022v7.151z" fill="#444"/></svg>